<mxfile host="app.diagrams.net" agent="Mozilla/5.0 (Windows NT 10.0; Win64; x64) AppleWebKit/537.36 (KHTML, like Gecko) Chrome/139.0.0.0 Safari/537.36" version="28.1.0">
  <diagram name="Page-1" id="SmWefleHxKzL45SZBfiZ">
    <mxGraphModel dx="1603" dy="811" grid="1" gridSize="10" guides="1" tooltips="1" connect="1" arrows="1" fold="1" page="1" pageScale="1" pageWidth="850" pageHeight="1100" math="0" shadow="0">
      <root>
        <mxCell id="0" />
        <mxCell id="1" parent="0" />
        <mxCell id="HVWOIlcUkPHdxsGbqKXo-1" value="&lt;font style=&quot;font-size: 36px;&quot;&gt;&lt;b&gt;Integration Model&amp;nbsp;&lt;/b&gt;&lt;/font&gt;" style="text;html=1;align=center;verticalAlign=middle;whiteSpace=wrap;rounded=0;" parent="1" vertex="1">
          <mxGeometry y="10" width="320" height="30" as="geometry" />
        </mxCell>
        <mxCell id="HVWOIlcUkPHdxsGbqKXo-2" value="crm_cust_info" style="swimlane;fontStyle=0;childLayout=stackLayout;horizontal=1;startSize=40;horizontalStack=0;resizeParent=1;resizeParentMax=0;resizeLast=0;collapsible=1;marginBottom=0;whiteSpace=wrap;html=1;rounded=0;fillColor=#dae8fc;strokeColor=#6c8ebf;fontSize=26;swimlaneLine=1;" parent="1" vertex="1">
          <mxGeometry x="320" y="480" width="240" height="130" as="geometry" />
        </mxCell>
        <mxCell id="HVWOIlcUkPHdxsGbqKXo-3" value="cst_id" style="text;strokeColor=none;fillColor=none;align=left;verticalAlign=middle;spacingLeft=4;spacingRight=4;overflow=hidden;points=[[0,0.5],[1,0.5]];portConstraint=eastwest;rotatable=0;whiteSpace=wrap;html=1;fontSize=26;swimlaneLine=1;" parent="HVWOIlcUkPHdxsGbqKXo-2" vertex="1">
          <mxGeometry y="40" width="240" height="40" as="geometry" />
        </mxCell>
        <mxCell id="HVWOIlcUkPHdxsGbqKXo-19" value="cst_key" style="text;strokeColor=none;fillColor=none;align=left;verticalAlign=middle;spacingLeft=4;spacingRight=4;overflow=hidden;points=[[0,0.5],[1,0.5]];portConstraint=eastwest;rotatable=0;whiteSpace=wrap;html=1;fontSize=26;swimlaneLine=1;" parent="HVWOIlcUkPHdxsGbqKXo-2" vertex="1">
          <mxGeometry y="80" width="240" height="50" as="geometry" />
        </mxCell>
        <mxCell id="HVWOIlcUkPHdxsGbqKXo-6" value="&lt;font style=&quot;font-size: 14px;&quot;&gt;Customer Information&lt;/font&gt;" style="text;html=1;align=center;verticalAlign=middle;whiteSpace=wrap;rounded=0;" parent="1" vertex="1">
          <mxGeometry x="360" y="450" width="160" height="30" as="geometry" />
        </mxCell>
        <mxCell id="HVWOIlcUkPHdxsGbqKXo-7" value="crm_prd_info" style="swimlane;fontStyle=0;childLayout=stackLayout;horizontal=1;startSize=40;horizontalStack=0;resizeParent=1;resizeParentMax=0;resizeLast=0;collapsible=1;marginBottom=0;whiteSpace=wrap;html=1;rounded=0;fillColor=#dae8fc;strokeColor=#6c8ebf;fontSize=26;" parent="1" vertex="1">
          <mxGeometry x="320" y="160" width="240" height="90" as="geometry">
            <mxRectangle x="560" y="180" width="200" height="40" as="alternateBounds" />
          </mxGeometry>
        </mxCell>
        <mxCell id="HVWOIlcUkPHdxsGbqKXo-8" value="prd_key" style="text;strokeColor=none;fillColor=none;align=left;verticalAlign=middle;spacingLeft=4;spacingRight=4;overflow=hidden;points=[[0,0.5],[1,0.5]];portConstraint=eastwest;rotatable=0;whiteSpace=wrap;html=1;fontSize=26;" parent="HVWOIlcUkPHdxsGbqKXo-7" vertex="1">
          <mxGeometry y="40" width="240" height="50" as="geometry" />
        </mxCell>
        <mxCell id="HVWOIlcUkPHdxsGbqKXo-9" value="&lt;font style=&quot;font-size: 14px;&quot;&gt;Current &amp;amp; History Product Information&lt;/font&gt;" style="text;html=1;align=center;verticalAlign=middle;whiteSpace=wrap;rounded=0;" parent="1" vertex="1">
          <mxGeometry x="320" y="130" width="240" height="30" as="geometry" />
        </mxCell>
        <mxCell id="HVWOIlcUkPHdxsGbqKXo-10" value="crm_sales_details" style="swimlane;fontStyle=0;childLayout=stackLayout;horizontal=1;startSize=40;horizontalStack=0;resizeParent=1;resizeParentMax=0;resizeLast=0;collapsible=1;marginBottom=0;whiteSpace=wrap;html=1;rounded=0;fillColor=#dae8fc;strokeColor=#6c8ebf;fontSize=26;swimlaneLine=1;" parent="1" vertex="1">
          <mxGeometry x="20" y="320" width="220" height="120" as="geometry" />
        </mxCell>
        <mxCell id="HVWOIlcUkPHdxsGbqKXo-11" value="prd_key" style="text;strokeColor=none;fillColor=none;align=left;verticalAlign=middle;spacingLeft=4;spacingRight=4;overflow=hidden;points=[[0,0.5],[1,0.5]];portConstraint=eastwest;rotatable=0;whiteSpace=wrap;html=1;fontSize=26;swimlaneLine=1;" parent="HVWOIlcUkPHdxsGbqKXo-10" vertex="1">
          <mxGeometry y="40" width="220" height="40" as="geometry" />
        </mxCell>
        <mxCell id="HVWOIlcUkPHdxsGbqKXo-13" value="cst_id" style="text;strokeColor=none;fillColor=none;align=left;verticalAlign=middle;spacingLeft=4;spacingRight=4;overflow=hidden;points=[[0,0.5],[1,0.5]];portConstraint=eastwest;rotatable=0;whiteSpace=wrap;html=1;fontSize=26;swimlaneLine=1;" parent="HVWOIlcUkPHdxsGbqKXo-10" vertex="1">
          <mxGeometry y="80" width="220" height="40" as="geometry" />
        </mxCell>
        <mxCell id="HVWOIlcUkPHdxsGbqKXo-12" value="&lt;font style=&quot;font-size: 14px;&quot;&gt;Transactional Recorda about Sales &amp;amp; Orders&lt;/font&gt;" style="text;html=1;align=center;verticalAlign=middle;whiteSpace=wrap;rounded=0;" parent="1" vertex="1">
          <mxGeometry x="20" y="290" width="220" height="30" as="geometry" />
        </mxCell>
        <mxCell id="HVWOIlcUkPHdxsGbqKXo-16" value="erp_cust_az12" style="swimlane;fontStyle=0;childLayout=stackLayout;horizontal=1;startSize=40;horizontalStack=0;resizeParent=1;resizeParentMax=0;resizeLast=0;collapsible=1;marginBottom=0;whiteSpace=wrap;html=1;rounded=0;fillColor=#fff2cc;strokeColor=#d6b656;fontSize=26;" parent="1" vertex="1">
          <mxGeometry x="600" y="400" width="230" height="80" as="geometry">
            <mxRectangle x="560" y="180" width="200" height="40" as="alternateBounds" />
          </mxGeometry>
        </mxCell>
        <mxCell id="HVWOIlcUkPHdxsGbqKXo-17" value="cid" style="text;strokeColor=none;fillColor=none;align=left;verticalAlign=middle;spacingLeft=4;spacingRight=4;overflow=hidden;points=[[0,0.5],[1,0.5]];portConstraint=eastwest;rotatable=0;whiteSpace=wrap;html=1;fontSize=26;" parent="HVWOIlcUkPHdxsGbqKXo-16" vertex="1">
          <mxGeometry y="40" width="230" height="40" as="geometry" />
        </mxCell>
        <mxCell id="HVWOIlcUkPHdxsGbqKXo-18" value="&lt;font style=&quot;font-size: 14px;&quot;&gt;Extra Customer Information (Birthdate)&lt;/font&gt;" style="text;html=1;align=center;verticalAlign=middle;whiteSpace=wrap;rounded=0;fillColor=none;strokeColor=none;" parent="1" vertex="1">
          <mxGeometry x="600" y="370" width="230" height="30" as="geometry" />
        </mxCell>
        <mxCell id="HVWOIlcUkPHdxsGbqKXo-23" value="erp_loc_a101" style="swimlane;fontStyle=0;childLayout=stackLayout;horizontal=1;startSize=40;horizontalStack=0;resizeParent=1;resizeParentMax=0;resizeLast=0;collapsible=1;marginBottom=0;whiteSpace=wrap;html=1;rounded=0;fillColor=#fff2cc;strokeColor=#d6b656;fontSize=26;" parent="1" vertex="1">
          <mxGeometry x="600" y="600" width="230" height="80" as="geometry">
            <mxRectangle x="560" y="180" width="200" height="40" as="alternateBounds" />
          </mxGeometry>
        </mxCell>
        <mxCell id="HVWOIlcUkPHdxsGbqKXo-24" value="cid" style="text;strokeColor=none;fillColor=none;align=left;verticalAlign=middle;spacingLeft=4;spacingRight=4;overflow=hidden;points=[[0,0.5],[1,0.5]];portConstraint=eastwest;rotatable=0;whiteSpace=wrap;html=1;fontSize=26;" parent="HVWOIlcUkPHdxsGbqKXo-23" vertex="1">
          <mxGeometry y="40" width="230" height="40" as="geometry" />
        </mxCell>
        <mxCell id="HVWOIlcUkPHdxsGbqKXo-25" value="&lt;font style=&quot;font-size: 14px;&quot;&gt;Location of Customers (Country)&lt;/font&gt;" style="text;html=1;align=center;verticalAlign=middle;whiteSpace=wrap;rounded=0;fillColor=none;strokeColor=none;" parent="1" vertex="1">
          <mxGeometry x="600" y="570" width="230" height="30" as="geometry" />
        </mxCell>
        <mxCell id="HVWOIlcUkPHdxsGbqKXo-32" value="erp_px_cat_g1v2" style="swimlane;fontStyle=0;childLayout=stackLayout;horizontal=1;startSize=40;horizontalStack=0;resizeParent=1;resizeParentMax=0;resizeLast=0;collapsible=1;marginBottom=0;whiteSpace=wrap;html=1;rounded=0;fillColor=#fff2cc;strokeColor=#d6b656;fontSize=26;" parent="1" vertex="1">
          <mxGeometry x="600" y="160" width="230" height="90" as="geometry">
            <mxRectangle x="560" y="180" width="200" height="40" as="alternateBounds" />
          </mxGeometry>
        </mxCell>
        <mxCell id="HVWOIlcUkPHdxsGbqKXo-33" value="id" style="text;strokeColor=none;fillColor=none;align=left;verticalAlign=middle;spacingLeft=4;spacingRight=4;overflow=hidden;points=[[0,0.5],[1,0.5]];portConstraint=eastwest;rotatable=0;whiteSpace=wrap;html=1;fontSize=26;" parent="HVWOIlcUkPHdxsGbqKXo-32" vertex="1">
          <mxGeometry y="40" width="230" height="50" as="geometry" />
        </mxCell>
        <mxCell id="HVWOIlcUkPHdxsGbqKXo-34" value="&lt;font style=&quot;font-size: 14px;&quot;&gt;Extra Product Information&lt;/font&gt;" style="text;html=1;align=center;verticalAlign=middle;whiteSpace=wrap;rounded=0;fillColor=none;strokeColor=none;" parent="1" vertex="1">
          <mxGeometry x="600" y="130" width="230" height="30" as="geometry" />
        </mxCell>
        <mxCell id="FhS7icUS_DH1XEc7kWKa-1" value="&lt;b&gt;&lt;font style=&quot;font-size: 24px;&quot;&gt;SALES&lt;/font&gt;&lt;/b&gt;" style="rounded=0;whiteSpace=wrap;html=1;fillColor=#e1d5e7;strokeColor=#9673a6;" vertex="1" parent="1">
          <mxGeometry x="20" y="440" width="220" height="40" as="geometry" />
        </mxCell>
        <mxCell id="FhS7icUS_DH1XEc7kWKa-2" value="&lt;b&gt;&lt;font style=&quot;font-size: 24px;&quot;&gt;PRODUCT&lt;/font&gt;&lt;/b&gt;" style="rounded=0;whiteSpace=wrap;html=1;fillColor=#f8cecc;strokeColor=#b85450;" vertex="1" parent="1">
          <mxGeometry x="320" y="240" width="240" height="40" as="geometry" />
        </mxCell>
        <mxCell id="FhS7icUS_DH1XEc7kWKa-3" value="&lt;b&gt;&lt;font style=&quot;font-size: 24px;&quot;&gt;PRODUCT&lt;/font&gt;&lt;/b&gt;" style="rounded=0;whiteSpace=wrap;html=1;fillColor=#f8cecc;strokeColor=#b85450;" vertex="1" parent="1">
          <mxGeometry x="600" y="240" width="230" height="40" as="geometry" />
        </mxCell>
        <mxCell id="FhS7icUS_DH1XEc7kWKa-4" value="&lt;b&gt;&lt;font style=&quot;font-size: 24px;&quot;&gt;CUSTOMER&lt;/font&gt;&lt;/b&gt;" style="rounded=0;whiteSpace=wrap;html=1;fillColor=#d5e8d4;strokeColor=#82b366;" vertex="1" parent="1">
          <mxGeometry x="320" y="600" width="240" height="40" as="geometry" />
        </mxCell>
        <mxCell id="FhS7icUS_DH1XEc7kWKa-5" value="&lt;b&gt;&lt;font style=&quot;font-size: 24px;&quot;&gt;CUSTOMER&lt;/font&gt;&lt;/b&gt;" style="rounded=0;whiteSpace=wrap;html=1;fillColor=#d5e8d4;strokeColor=#82b366;" vertex="1" parent="1">
          <mxGeometry x="600" y="680" width="230" height="40" as="geometry" />
        </mxCell>
        <mxCell id="FhS7icUS_DH1XEc7kWKa-6" value="&lt;b&gt;&lt;font style=&quot;font-size: 24px;&quot;&gt;CUSTOMER&lt;/font&gt;&lt;/b&gt;" style="rounded=0;whiteSpace=wrap;html=1;fillColor=#d5e8d4;strokeColor=#82b366;" vertex="1" parent="1">
          <mxGeometry x="600" y="480" width="230" height="40" as="geometry" />
        </mxCell>
        <mxCell id="FhS7icUS_DH1XEc7kWKa-9" style="edgeStyle=orthogonalEdgeStyle;rounded=0;orthogonalLoop=1;jettySize=auto;html=1;entryX=0;entryY=0.5;entryDx=0;entryDy=0;" edge="1" parent="1" source="HVWOIlcUkPHdxsGbqKXo-11" target="HVWOIlcUkPHdxsGbqKXo-8">
          <mxGeometry relative="1" as="geometry" />
        </mxCell>
        <mxCell id="FhS7icUS_DH1XEc7kWKa-10" style="edgeStyle=orthogonalEdgeStyle;rounded=0;orthogonalLoop=1;jettySize=auto;html=1;entryX=0;entryY=0.5;entryDx=0;entryDy=0;" edge="1" parent="1" source="HVWOIlcUkPHdxsGbqKXo-13" target="HVWOIlcUkPHdxsGbqKXo-3">
          <mxGeometry relative="1" as="geometry" />
        </mxCell>
        <mxCell id="FhS7icUS_DH1XEc7kWKa-15" style="edgeStyle=orthogonalEdgeStyle;rounded=0;orthogonalLoop=1;jettySize=auto;html=1;entryX=1;entryY=0.5;entryDx=0;entryDy=0;" edge="1" parent="1" source="HVWOIlcUkPHdxsGbqKXo-33" target="HVWOIlcUkPHdxsGbqKXo-8">
          <mxGeometry relative="1" as="geometry" />
        </mxCell>
        <mxCell id="FhS7icUS_DH1XEc7kWKa-16" style="edgeStyle=orthogonalEdgeStyle;rounded=0;orthogonalLoop=1;jettySize=auto;html=1;entryX=1;entryY=0.5;entryDx=0;entryDy=0;" edge="1" parent="1" source="HVWOIlcUkPHdxsGbqKXo-17" target="HVWOIlcUkPHdxsGbqKXo-19">
          <mxGeometry relative="1" as="geometry">
            <Array as="points">
              <mxPoint x="590" y="460" />
              <mxPoint x="590" y="585" />
            </Array>
          </mxGeometry>
        </mxCell>
        <mxCell id="FhS7icUS_DH1XEc7kWKa-17" style="edgeStyle=orthogonalEdgeStyle;rounded=0;orthogonalLoop=1;jettySize=auto;html=1;entryX=1;entryY=0.5;entryDx=0;entryDy=0;" edge="1" parent="1" source="HVWOIlcUkPHdxsGbqKXo-24" target="HVWOIlcUkPHdxsGbqKXo-19">
          <mxGeometry relative="1" as="geometry">
            <Array as="points">
              <mxPoint x="590" y="660" />
              <mxPoint x="590" y="585" />
            </Array>
          </mxGeometry>
        </mxCell>
        <mxCell id="FhS7icUS_DH1XEc7kWKa-22" value="" style="rounded=1;whiteSpace=wrap;html=1;fillColor=none;strokeColor=#6c8ebf;dashed=1;" vertex="1" parent="1">
          <mxGeometry x="10" y="80" width="560" height="680" as="geometry" />
        </mxCell>
        <mxCell id="FhS7icUS_DH1XEc7kWKa-23" value="CRM" style="rounded=1;whiteSpace=wrap;html=1;fillColor=#dae8fc;strokeColor=#6c8ebf;fontSize=35;" vertex="1" parent="1">
          <mxGeometry x="232.5" y="60" width="115" height="30" as="geometry" />
        </mxCell>
        <mxCell id="FhS7icUS_DH1XEc7kWKa-27" value="" style="rounded=1;whiteSpace=wrap;html=1;fillColor=none;strokeColor=#d6b656;dashed=1;" vertex="1" parent="1">
          <mxGeometry x="580" y="80" width="260" height="680" as="geometry" />
        </mxCell>
        <mxCell id="FhS7icUS_DH1XEc7kWKa-28" value="ERP" style="rounded=1;whiteSpace=wrap;html=1;fillColor=#fff2cc;strokeColor=#d6b656;fontSize=35;" vertex="1" parent="1">
          <mxGeometry x="652.5" y="60" width="115" height="30" as="geometry" />
        </mxCell>
      </root>
    </mxGraphModel>
  </diagram>
</mxfile>
